<svg width="90" height="90" viewBox="0 0 90 90" fill="none" xmlns="http://www.w3.org/2000/svg">
<g clip-path="url(#clip0_371_1058)">
<path d="M80.1081 30.27C78.4956 30.09 76.7743 30 75.0006 30C64.4856 30 55.8231 40.0875 54.0456 42.3075C51.9268 41.6025 49.5193 41.1675 46.7931 41.25C41.6143 41.3663 37.0993 43.0838 33.4393 45.2175C34.0581 40.53 33.9493 36.1425 33.8368 32.49C33.7581 30.0825 33.6906 27.7725 33.8743 26.0663L42.4618 23.3325C44.0181 22.8375 45.0756 21.39 45.0756 19.7588V18.705L48.0343 17.6288C49.8118 16.9238 51.2481 15.5025 51.9756 13.7325C52.6956 11.9738 52.6806 10.0575 51.9231 8.32875C49.7068 3.27 44.0443 0 37.5006 0C30.6568 0 25.4143 4.45125 25.0393 4.7925C2.59932 22.05 -0.014433 45.1313 -0.033183 60.99C-0.040683 66.0638 2.04807 70.9688 5.69682 74.46C11.8131 80.2988 25.0543 90.09 44.9968 90.09C62.5693 90.09 74.8693 85.5038 82.0956 81.6563C86.9706 79.065 89.9968 73.995 89.9968 68.4338V41.4525C89.9968 35.715 85.7443 30.9075 80.1043 30.2775L80.1081 30.27ZM82.5006 68.43C82.5006 71.2125 80.9968 73.7438 78.5743 75.0338C72.1018 78.48 61.0243 82.59 45.0006 82.59C27.6681 82.59 16.1818 74.0963 10.8756 69.0375C8.67057 66.93 7.45932 64.08 7.46682 61.0013C7.48557 45.5175 10.0168 25.8113 29.7906 10.5938C29.8243 10.5638 33.4168 7.50375 37.5006 7.50375C41.1981 7.50375 43.7331 9.105 44.7868 10.8375L40.0393 12.5625C38.5543 13.1025 37.5718 14.5088 37.5718 16.0838V17.0213L29.5356 19.5788C28.4143 19.935 27.5293 20.7938 27.1356 21.9C26.0893 24.855 26.2018 28.5038 26.3331 32.7263C26.5281 39.0975 26.7981 47.0663 22.9356 54.5813C22.6768 55.0913 22.4968 55.6463 22.4968 56.2575C22.4968 58.3275 24.1768 60.0075 26.2468 60.0075C27.4468 60.0075 28.4631 59.4113 29.1493 58.5338C29.2243 58.44 36.6718 48.9825 46.9543 48.7575C54.2668 48.7575 58.5681 54.3225 58.7668 54.615C59.9218 56.3175 62.2468 56.7713 63.9606 55.62C65.6781 54.465 66.1356 52.1363 64.9806 50.415C64.8606 50.235 63.4318 48.1275 60.7468 45.9825C63.5406 42.8025 69.3718 37.5075 74.9931 37.5075C76.4893 37.5075 77.9293 37.5863 79.2681 37.7363C81.1056 37.9425 82.4931 39.54 82.4931 41.4563V68.4375L82.5006 68.43Z" fill="black"/>
</g>
<defs>
<clipPath id="clip0_371_1058">
<rect width="90" height="90" fill="white"/>
</clipPath>
</defs>
</svg>
