<svg width="512" height="512" viewBox="0 0 512 512" fill="none" xmlns="http://www.w3.org/2000/svg">
<g clip-path="url(#clip0_372_58)">
<path d="M354.774 61.867C337.985 47.638 320.385 32.683 302.465 16.384C288.718 3.882 270.152 -1.912 251.734 0.555003C233.886 2.913 218.006 13.072 208.385 28.288C182.955 70.784 164.975 117.313 155.222 165.867C151.395 160.341 148 154.529 145.067 148.48C134.963 127.192 109.515 118.125 88.2269 128.229C83.0729 130.675 78.4619 134.13 74.6669 138.389C38.8839 174.955 19.0469 224.21 19.4989 275.37C18.4819 382.902 90.8129 477.313 194.902 504.32C214.269 509.193 234.153 511.714 254.123 511.829C254.763 511.829 261.568 511.765 264.32 511.573C391.68 507.448 492.746 402.925 492.587 275.498C492.502 178.859 428.673 124.672 354.774 61.867ZM253.59 469.013C237.713 467.805 222.023 461.374 210.177 451.818C191.627 438.692 179.352 419.444 176.428 397.269C172.801 362.666 194.135 317.418 237.719 266.304C242.289 260.966 248.975 257.907 256.002 257.941C262.938 257.891 269.534 260.942 273.986 266.261C313.922 313.664 335.853 357.397 335.853 389.418C335.73 431.488 302.847 464.768 260.973 468.821C259.134 468.999 256.001 469.269 253.59 469.013ZM374.956 428.437C373.697 429.418 372.311 430.208 371.031 431.146C375.953 417.768 378.488 403.63 378.519 389.375C378.519 335.466 339.372 277.695 306.562 238.719C294.009 223.852 275.545 215.268 256.087 215.252H256.001C236.504 215.217 217.973 223.742 205.313 238.569C153.153 299.668 129.196 354.558 134.102 401.726C135.267 412.676 138.064 423.39 142.401 433.513C91.7429 396.807 61.8939 337.926 62.2299 275.369C61.8179 234.73 77.8439 195.648 106.667 166.996C111.588 177.226 117.497 186.95 124.31 196.031C133.667 208.681 149.652 214.551 164.971 210.964C180.59 207.509 192.717 195.19 195.926 179.519C204.497 134.215 220.876 90.745 244.331 51.05C247.217 46.512 251.984 43.506 257.323 42.858C263.29 42.055 269.305 43.938 273.75 47.999C292.054 64.639 310.017 79.999 327.083 94.442C398.294 154.922 449.771 198.613 449.771 275.498C449.955 335.331 422.335 391.856 375.019 428.479L374.956 428.437Z" fill="black"/>
</g>
<defs>
<clipPath id="clip0_372_58">
<rect width="512" height="512" fill="white"/>
</clipPath>
</defs>
</svg>
