<svg width="120" height="120" viewBox="0 0 120 120" fill="none" xmlns="http://www.w3.org/2000/svg">
<g clip-path="url(#clip0_451_443)">
<path d="M62.985 54.085L49.19 67.595C47.59 69.195 45.47 70 43.35 70C41.215 70 39.075 69.19 37.445 67.56L30.195 60.595L37.125 53.385L43.33 59.345L55.995 46.945L62.99 54.09L62.985 54.085ZM55 95H85V85H55V95ZM35 95H45V85H35V95ZM55 35H85V25H55V35ZM45 25H35V35H45V25ZM110 15V120H10V15C10 6.73 16.73 0 25 0H95C103.27 0 110 6.73 110 15ZM100 15C100 12.245 97.755 10 95 10H25C22.245 10 20 12.245 20 15V110H100V15ZM65 65H85V55H75.21L65 65Z" fill="black"/>
</g>
<defs>
<clipPath id="clip0_451_443">
<rect width="120" height="120" fill="white"/>
</clipPath>
</defs>
</svg>
